<svg xmlns="http://www.w3.org/2000/svg" width="60" height="60" viewBox="0 0 60 60" fill="none">
<path d="M57.9525 19.9663L30.9803 0.226256C30.7794 0.0792462 30.537 0 30.2881 0C30.0392 0 29.7968 0.0792462 29.5959 0.226256L2.62382 19.9663C2.10164 20.3485 1.98808 21.0818 2.37035 21.6041L5.8957 26.4211C5.98656 26.5453 6.101 26.6504 6.2325 26.7304C6.364 26.8104 6.50998 26.8637 6.66208 26.8872C6.81418 26.9107 6.96943 26.9041 7.11896 26.8676C7.26848 26.8311 7.40935 26.7655 7.53351 26.6745L8.59734 25.8959V58.828C8.59734 59.4751 9.12211 59.9998 9.76922 59.9998H50.869C51.5161 59.9998 52.0409 59.4751 52.0409 58.828V25.9413L53.0428 26.6745C53.167 26.7655 53.3078 26.831 53.4573 26.8675C53.6069 26.904 53.7621 26.9106 53.9142 26.8871C54.0663 26.8636 54.2122 26.8103 54.3437 26.7303C54.4752 26.6504 54.5896 26.5453 54.6805 26.4211L58.2059 21.6041C58.5882 21.0816 58.4747 20.3485 57.9525 19.9663ZM49.6971 53.0856H21.9715C21.3244 53.0856 20.7996 53.6103 20.7996 54.2574C20.7996 54.9045 21.3244 55.4293 21.9715 55.4293H49.6971V57.6562H10.941V25.105H38.3842C39.0313 25.105 39.5561 24.5803 39.5561 23.9332C39.5561 23.2861 39.0313 22.7613 38.3842 22.7613H12.8811L30.2882 10.0213L49.6971 24.226V53.0856ZM53.4813 24.0911L30.9803 7.62348C30.7795 7.47638 30.5371 7.39712 30.2882 7.39719C30.0393 7.39709 29.7968 7.47636 29.5961 7.62348L7.09488 24.0911L4.95375 21.1654L30.2883 2.62391L55.6228 21.1654L53.4813 24.0911Z" fill="#F1CDB3"/>
<path d="M43.7554 23.7046C43.7401 23.6295 43.7167 23.5557 43.6874 23.4842C43.6581 23.4139 43.6218 23.3459 43.5796 23.2826C43.5374 23.2184 43.4887 23.1587 43.4343 23.1045C43.214 22.8855 42.9164 22.7621 42.6058 22.761C42.2976 22.761 41.9952 22.8864 41.7774 23.1045C41.7235 23.1584 41.6742 23.2182 41.632 23.2826C41.5899 23.3459 41.5535 23.4139 41.5242 23.4842C41.4949 23.5557 41.4715 23.6295 41.4574 23.7046C41.4422 23.7796 41.434 23.8569 41.434 23.933C41.434 24.0092 41.4422 24.0866 41.4574 24.1615C41.4715 24.2364 41.4949 24.3103 41.5242 24.3818C41.5535 24.4523 41.5899 24.5202 41.632 24.5835C41.6742 24.648 41.7235 24.7076 41.7774 24.7616C41.8313 24.8155 41.891 24.8648 41.9555 24.9069C42.0188 24.949 42.0867 24.9855 42.1582 25.0148C42.2285 25.0441 42.3022 25.0675 42.3774 25.0816C42.4524 25.0968 42.5297 25.1049 42.6058 25.1049C42.6819 25.1049 42.7594 25.0968 42.8343 25.0816C42.9095 25.067 42.9829 25.0446 43.0534 25.0148C43.1249 24.9855 43.1929 24.949 43.2561 24.9069C43.3206 24.8648 43.3803 24.8155 43.4343 24.7616C43.4882 24.7077 43.5374 24.648 43.5796 24.5835C43.6218 24.5202 43.6581 24.4523 43.6874 24.3818C43.7167 24.3105 43.7401 24.2365 43.7554 24.1615C43.7706 24.0865 43.7775 24.0092 43.7775 23.933C43.7775 23.8569 43.7705 23.7795 43.7554 23.7046Z" fill="#F1CDB3"/>
<path d="M18.8984 54.0281C18.8834 53.9531 18.8611 53.8797 18.8318 53.809C18.8025 53.7386 18.766 53.6695 18.7238 53.6063C18.6814 53.5423 18.6328 53.4826 18.5786 53.4281C18.5247 53.3742 18.4649 53.3262 18.4005 53.2828C18.2725 53.1978 18.1292 53.1385 17.9786 53.1082C17.8274 53.0777 17.6717 53.0777 17.5204 53.1082C17.4466 53.1234 17.3728 53.1457 17.3013 53.175C17.231 53.2043 17.163 53.2406 17.0997 53.2828C17.0353 53.325 16.9754 53.3742 16.9216 53.4281C16.8665 53.482 16.8185 53.543 16.7751 53.6063C16.6901 53.7342 16.6309 53.8775 16.6006 54.0281C16.5853 54.1043 16.5784 54.1805 16.5784 54.2566C16.5779 54.4106 16.6081 54.5632 16.6673 54.7054C16.6966 54.7758 16.7331 54.8438 16.7751 54.9081C16.8185 54.9714 16.8665 55.0312 16.9216 55.0862C16.9755 55.1403 17.0354 55.1895 17.0997 55.2315C17.163 55.2737 17.231 55.3101 17.3013 55.3394C17.3728 55.3686 17.4466 55.3909 17.5204 55.4061C17.5966 55.4214 17.674 55.4296 17.7501 55.4296C17.9816 55.4286 18.2078 55.3598 18.4005 55.2315C18.4648 55.1894 18.5245 55.1407 18.5786 55.0862C18.6325 55.0312 18.6818 54.9715 18.7238 54.9081C18.8523 54.7151 18.9212 54.4885 18.9219 54.2566C18.9219 54.1805 18.9137 54.1042 18.8984 54.0281Z" fill="#F1CDB3"/>
<path d="M44.8446 30.5741C44.8446 29.5803 44.4549 28.6476 43.747 27.9481C43.046 27.2554 42.0874 26.8676 41.11 26.876C40.8018 26.8793 40.4952 26.9208 40.1973 26.9997C38.0273 27.5554 35.9071 28.2902 33.8585 29.1966C32.6886 28.9199 31.4905 28.7806 30.2883 28.7813C29.6113 28.7813 28.9283 28.8257 28.2579 28.9133C27.7402 28.9816 27.2263 29.0761 26.7182 29.1966C24.67 28.2903 22.5501 27.5556 20.3804 26.9999C20.37 26.997 20.3595 26.9942 20.349 26.9915C19.1957 26.6978 18.0062 26.9619 17.0858 27.7171C16.1657 28.472 15.6743 29.5867 15.7375 30.7745C15.802 31.9938 15.922 33.2096 16.0969 34.418C16.254 35.5012 16.4548 36.5776 16.6986 37.6446C16.3358 38.5729 16.0831 39.5405 15.9455 40.5276C15.8883 40.9397 15.8594 41.3553 15.859 41.7714C15.859 47.0173 20.4335 51.2853 26.0567 51.2853H34.5203C37.6024 51.2853 40.486 50.0035 42.4316 47.7686C44.2146 45.7205 44.9958 43.1486 44.6312 40.5269C44.5528 39.9648 44.4372 39.4085 44.2851 38.8617C44.1698 38.4498 44.0341 38.0438 43.8786 37.6453C44.3945 35.3878 44.7159 33.0901 44.8392 30.7777C44.8429 30.7091 44.8446 30.6416 44.8446 30.5741ZM42.4987 30.647L42.4984 30.651C42.376 32.949 42.046 35.2312 41.5123 37.4697C41.4542 37.7133 41.4757 37.9692 41.5736 38.1997C41.7522 38.6199 41.9035 39.0511 42.0267 39.4907C42.1508 39.937 42.2452 40.391 42.3093 40.8497C42.579 42.7897 41.9945 44.7004 40.6633 46.2296C39.1629 47.9529 36.9238 48.9414 34.5197 48.9414H26.0561C21.7255 48.9414 18.2022 45.7249 18.2022 41.7714C18.2022 41.4679 18.2238 41.1574 18.2664 40.8496C18.3938 39.938 18.6412 39.0473 19.0022 38.2007C19.1005 37.9699 19.1221 37.7138 19.064 37.4698C18.7973 36.3508 18.581 35.2203 18.4158 34.0819C18.251 32.9439 18.1381 31.799 18.0774 30.6508C18.0542 30.2148 18.2344 29.806 18.572 29.5289C18.8193 29.326 19.1197 29.2196 19.429 29.2196C19.5344 29.2196 19.6409 29.2319 19.7467 29.2571L19.77 29.2633C21.9493 29.8194 24.0751 30.5674 26.1224 31.4985C26.3697 31.6112 26.6484 31.6346 26.911 31.5646C27.4536 31.4199 28.0051 31.3106 28.5619 31.2372C29.1311 31.1628 29.7119 31.125 30.2876 31.125C31.4353 31.125 32.5712 31.2729 33.6641 31.5646C33.9264 31.6342 34.2048 31.6114 34.4519 31.499C36.5065 30.5646 38.64 29.8145 40.8273 29.2573C40.9274 29.2333 41.0299 29.2207 41.1328 29.2196H41.1481C41.4983 29.2196 41.8443 29.3632 42.099 29.6149C42.2265 29.74 42.3277 29.8892 42.3966 30.0539C42.4655 30.2186 42.5008 30.3955 42.5004 30.574C42.5005 30.5983 42.4999 30.6224 42.4987 30.647Z" fill="#F1CDB3"/>
<path d="M32.486 43.5662C31.9204 43.5662 31.4601 43.1059 31.4601 42.5403C31.4601 41.8932 30.9354 41.3684 30.2882 41.3684C29.641 41.3684 29.1163 41.8932 29.1163 42.5403V42.5831C29.1163 43.1487 28.6561 43.609 28.0904 43.609C27.4432 43.609 26.9186 44.1338 26.9186 44.7809C26.9186 45.428 27.4432 45.9528 28.0904 45.9528C28.9412 45.9528 29.7191 45.6356 30.3128 45.1135C30.9198 45.6284 31.6901 45.9107 32.486 45.9099C33.1331 45.9099 33.6579 45.3851 33.6579 44.738C33.6579 44.0908 33.1331 43.5662 32.486 43.5662Z" fill="#F1CDB3"/>
<path d="M26.1918 38.1664L24.4511 37.3688C24.298 37.2985 24.1315 37.2621 23.963 37.2621C23.7945 37.2621 23.628 37.2985 23.4749 37.3688L21.7341 38.1664C21.1457 38.4359 20.8872 39.1314 21.1568 39.7198C21.2209 39.8597 21.3119 39.9856 21.4247 40.0904C21.5374 40.1951 21.6697 40.2766 21.814 40.3302C21.9582 40.3838 22.1116 40.4085 22.2654 40.4028C22.4192 40.3971 22.5704 40.3612 22.7103 40.2971L23.9629 39.7232L25.2155 40.2971C25.8036 40.5669 26.4994 40.3082 26.7689 39.7198C27.0387 39.1314 26.7801 38.4358 26.1918 38.1664Z" fill="#F1CDB3"/>
<path d="M38.8422 38.1662L37.1015 37.3686C36.9484 37.2983 36.7819 37.262 36.6134 37.262C36.4449 37.262 36.2785 37.2983 36.1253 37.3686L34.3846 38.1662C33.7962 38.4357 33.5377 39.1312 33.8074 39.7196C34.077 40.3083 34.7725 40.5669 35.3608 40.2969L36.6134 39.723L37.866 40.2969C38.0189 40.3672 38.1852 40.4036 38.3534 40.4036C38.7976 40.4036 39.2224 40.1498 39.4195 39.7196C39.6891 39.1312 39.4307 38.4357 38.8422 38.1662Z" fill="#F1CDB3"/>
</svg>