<svg xmlns="http://www.w3.org/2000/svg" width="60" height="60" viewBox="0 0 60 60" fill="none">
  <path d="M52.8977 25.4978L47.1427 9.7473V1.42852C47.1427 0.639609 46.503 0 45.7142 0H14.2857C13.4968 0 12.8572 0.639727 12.8572 1.42852V9.74719L7.10196 25.4978C6.41909 27.3636 6.07021 29.335 6.07129 31.3219V55.0765C6.07129 57.7913 8.27992 60 10.9948 60H49.0048C51.7197 60 53.9283 57.7913 53.9283 55.0765V31.3219C53.9283 29.329 53.5816 27.3694 52.8977 25.4978ZM15.7141 2.85715H44.2855V8.57145H15.7141V2.85715ZM51.0713 50.1321H30.9075C30.1186 50.1321 29.479 50.7718 29.479 51.5606C29.479 52.3495 30.1188 52.9891 30.9075 52.9891H51.0713V55.0763C51.0713 56.2157 50.1443 57.1427 49.0048 57.1427H10.9948C9.85539 57.1427 8.92844 56.2158 8.92844 55.0763V31.3219C8.92756 29.6695 9.21769 28.03 9.78555 26.4783L15.2846 11.4286H44.715L50.2141 26.4783C50.7819 28.03 51.072 29.6695 51.0712 31.3219L51.0713 50.1321Z" fill="#F1CDB3"/>
  <path d="M35.6167 33.805C35.1503 30.8772 32.6076 28.632 29.5503 28.632C26.493 28.632 23.9503 30.8772 23.4838 33.805C21.0669 34.7989 19.4855 37.2756 19.6897 39.9659C19.9174 42.9637 22.3504 45.392 25.3488 45.6148C26.5069 45.7011 27.657 45.4628 28.6749 44.9259C29.2313 44.6328 29.8695 44.6326 30.4254 44.926C31.3083 45.3908 32.2912 45.6331 33.2889 45.632C33.4427 45.632 33.5972 45.6263 33.7515 45.6149C36.7501 45.3923 39.183 42.9638 39.4108 39.966C39.6151 37.2756 38.0337 34.7989 35.6167 33.805ZM36.5619 39.7495C36.4403 41.35 35.1413 42.6466 33.5401 42.7655C32.9174 42.8126 32.3012 42.6851 31.7585 42.3986C31.0779 42.0394 30.32 41.8517 29.5504 41.8517C28.7809 41.8517 28.0229 42.0394 27.3424 42.3986C26.7997 42.6849 26.1847 42.8123 25.5606 42.7655C23.9595 42.6467 22.6604 41.3501 22.539 39.7495C22.4142 38.1062 23.5294 36.6124 25.1329 36.2746C25.4586 36.206 25.7501 36.0259 25.9571 35.7653C26.1642 35.5047 26.2737 35.18 26.2669 34.8473L26.2646 34.775C26.2646 32.9632 27.7385 31.4893 29.5503 31.4893C31.3621 31.4893 32.836 32.9632 32.836 34.7698L32.8338 34.8473C32.8269 35.1801 32.9364 35.5048 33.1434 35.7654C33.3505 36.026 33.6421 36.2061 33.9678 36.2746C35.5715 36.6124 36.6867 38.1062 36.5619 39.7495Z" fill="#F1CDB3"/>
  <path d="M29.5504 25.7751C32.1106 25.7751 34.1933 23.6924 34.1933 21.1322C34.1933 18.572 32.1106 16.4893 29.5504 16.4893C26.9902 16.4893 24.9075 18.5721 24.9075 21.1322C24.9075 23.6923 26.9904 25.7751 29.5504 25.7751ZM29.5504 19.3465C30.5351 19.3465 31.3361 20.1475 31.3361 21.1322C31.3361 22.1169 30.5351 22.9179 29.5504 22.9179C28.5657 22.9179 27.7647 22.1169 27.7647 21.1322C27.7647 20.1475 28.5658 19.3465 29.5504 19.3465Z" fill="#F1CDB3"/>
  <path d="M24.1933 26.6561C24.1933 24.0959 22.1105 22.0132 19.5504 22.0132C16.9904 22.0132 14.9076 24.096 14.9076 26.6561C14.9076 29.2162 16.9902 31.2989 19.5504 31.2989C22.1106 31.2989 24.1933 29.2162 24.1933 26.6561ZM19.5504 28.4418C18.5657 28.4418 17.7647 27.6408 17.7647 26.6561C17.7647 25.6714 18.5657 24.8704 19.5504 24.8704C20.5352 24.8704 21.3361 25.6714 21.3361 26.6561C21.3361 27.6408 20.535 28.4418 19.5504 28.4418Z" fill="#F1CDB3"/>
  <path d="M39.5504 22.0131C36.9902 22.0131 34.9075 24.0959 34.9075 26.656C34.9075 29.216 36.9904 31.2988 39.5504 31.2988C42.1106 31.2988 44.1932 29.2162 44.1932 26.656C44.1932 24.0958 42.1106 22.0131 39.5504 22.0131ZM39.5504 28.4418C38.5656 28.4418 37.7647 27.6408 37.7647 26.6561C37.7647 25.6714 38.5658 24.8704 39.5504 24.8704C40.5351 24.8704 41.3361 25.6714 41.3361 26.6561C41.3361 27.6408 40.5351 28.4418 39.5504 28.4418Z" fill="#F1CDB3"/>
  <path d="M24.6932 50.1322H24.3463C23.5574 50.1322 22.9178 50.7719 22.9178 51.5607C22.9178 52.3496 23.5575 52.9892 24.3463 52.9892H24.6932C25.4821 52.9892 26.1217 52.3495 26.1217 51.5607C26.1218 50.7719 25.4822 50.1322 24.6932 50.1322Z" fill="#F1CDB3"/>
</svg>