<svg xmlns="http://www.w3.org/2000/svg" width="60" height="60" viewBox="0 0 60 60" fill="none">
  <path d="M37.1305 17.1814V11.7391C37.1305 11.0188 36.5466 10.4348 35.8262 10.4348H34.8479V1.3043C34.8479 0.583945 34.264 0 33.5436 0H25.0654C24.345 0 23.7611 0.583945 23.7611 1.3043V10.4347H22.7828C22.0624 10.4347 21.4785 11.0187 21.4785 11.739V17.1813C16.898 19.0078 13.6523 23.4879 13.6523 28.712V58.6956C13.6523 59.4159 14.2363 59.9999 14.9566 59.9999H43.6523C44.3727 59.9999 44.9566 59.4159 44.9566 58.6956V28.7121C44.9565 23.4879 41.7109 19.0078 37.1305 17.1814ZM26.3696 2.60871H32.2392V10.4348H26.3696V2.60871ZM24.087 13.0434H34.5217V16.3043H24.087V13.0434ZM42.3478 57.3913H16.2609V28.7121C16.2609 23.3088 20.6568 18.913 26.0599 18.913H32.5488C37.9521 18.913 42.3478 23.3088 42.3478 28.7121V57.3913Z" fill="#F1CDB3"/>
  <path d="M37.7827 27.3913H20.8262C20.1058 27.3913 19.5219 27.9752 19.5219 28.6956V52.826C19.5219 53.5464 20.1058 54.1303 20.8262 54.1303H37.7827C38.5031 54.1303 39.087 53.5464 39.087 52.826V44.6287C39.087 43.9084 38.5031 43.3244 37.7827 43.3244C37.0624 43.3244 36.4784 43.9084 36.4784 44.6287V51.5217H22.1306V30H36.4784V34.1287C36.4784 34.8491 37.0624 35.433 37.7827 35.433C38.5031 35.433 39.087 34.8491 39.087 34.1287V28.6957C39.087 27.9752 38.5031 27.3913 37.7827 27.3913Z" fill="#F1CDB3"/>
  <path d="M37.7827 38.0645C37.0623 38.0645 36.4784 38.6484 36.4784 39.3688V39.4992C36.4784 40.2195 37.0623 40.8035 37.7827 40.8035C38.503 40.8035 39.087 40.2195 39.087 39.4992V39.3688C39.087 38.6484 38.503 38.0645 37.7827 38.0645Z" fill="#F1CDB3"/>
  <path d="M27.9924 41.1512C25.8348 41.1512 24.0794 42.9066 24.0794 45.0642C24.0794 47.2219 25.8348 48.9773 27.9924 48.9773C30.1501 48.9773 31.9054 47.2219 31.9054 45.0642C31.9054 42.9067 30.1501 41.1512 27.9924 41.1512ZM27.9924 46.3687C27.2733 46.3687 26.6881 45.7835 26.6881 45.0644C26.6881 44.3452 27.2733 43.7601 27.9924 43.7601C28.7116 43.7601 29.2967 44.3452 29.2967 45.0644C29.2967 45.7835 28.7117 46.3687 27.9924 46.3687Z" fill="#F1CDB3"/>
  <path d="M34.8459 35.9842C34.8459 33.8266 33.0905 32.0712 30.9328 32.0712C28.7752 32.0712 27.0198 33.8266 27.0198 35.9842C27.0198 38.1419 28.7752 39.8973 30.9328 39.8973C33.0904 39.8974 34.8459 38.1419 34.8459 35.9842ZM30.9327 37.2887C30.2135 37.2887 29.6284 36.7035 29.6284 35.9844C29.6284 35.2652 30.2135 34.6801 30.9327 34.6801C31.6519 34.6801 32.237 35.2652 32.237 35.9844C32.237 36.7035 31.6521 37.2887 30.9327 37.2887Z" fill="#F1CDB3"/>
</svg>