<svg xmlns="http://www.w3.org/2000/svg" width="61" height="60" viewBox="0 0 61 60" fill="none">
  <path d="M56.0044 12.7115H48.9815V12.5095C48.9815 8.87665 46.026 5.92118 42.3932 5.92118C38.7604 5.92118 35.8049 8.87665 35.8049 12.5095V12.7115H27.5572C24.8415 12.7115 22.6321 14.9209 22.6321 17.6365V23.2009H15.2459C13.4839 23.2009 11.9177 24.2562 11.2559 25.8893C11.2463 25.9133 11.2374 25.9375 11.2292 25.962L6.96814 38.8689C6.92946 38.8919 6.88013 38.9191 6.81872 38.9498C6.57509 39.0714 6.11935 39.2568 5.33513 39.4484C4.09068 39.7499 2.98396 40.4616 2.19329 41.4688C1.40261 42.4759 0.974025 43.72 0.976574 45.0004V51.0987C0.976574 53.1406 2.63771 54.8018 4.67958 54.8018L9.9038 54.802C10.4554 57.7562 13.0515 59.9999 16.1633 59.9999C19.2749 59.9999 21.871 57.7561 22.4227 54.8021L40.8473 54.8024C41.399 57.7564 43.9949 59.9999 47.1066 59.9999C50.2182 59.9999 52.8141 57.7565 53.366 54.8026L56.6836 54.8027C59.2232 54.8027 60.9295 53.0963 60.9295 50.5568V20.08C60.9295 13.4295 57.4852 12.7115 56.0044 12.7115ZM38.1487 12.5095C38.1487 10.169 40.0527 8.26493 42.3932 8.26493C44.7337 8.26493 46.6377 10.169 46.6377 12.5095V12.7115H38.1487V12.5095ZM13.4413 26.7379C13.5911 26.3833 13.8422 26.0809 14.1633 25.8686C14.4843 25.6563 14.8609 25.5436 15.2458 25.5447H22.632V38.8266H9.45028L13.4413 26.7379ZM16.1633 57.6562C13.9436 57.6562 12.1377 55.8504 12.1377 53.6307C12.1377 53.6033 12.1393 53.5762 12.1399 53.5488C12.1407 53.5069 12.1409 53.465 12.143 53.4234C12.1434 53.4168 12.1442 53.4104 12.1445 53.4038C12.2627 51.2894 14.02 49.6052 16.1633 49.6052C18.1027 49.6052 19.7262 50.9841 20.1051 52.8129L20.1067 52.82C20.1195 52.882 20.1305 52.9445 20.1404 53.0076L20.1422 53.018C20.1493 53.0638 20.1544 53.1101 20.1598 53.1564C20.1623 53.1775 20.1657 53.1983 20.1678 53.2194C20.1714 53.2554 20.1734 53.2921 20.1761 53.3285C20.1785 53.3602 20.1817 53.3916 20.1834 53.4235C20.185 53.4563 20.185 53.4896 20.1858 53.5226C20.1868 53.5586 20.1885 53.5944 20.1885 53.6306C20.1888 55.8504 18.3829 57.6562 16.1633 57.6562ZM47.1066 57.6562C44.887 57.6562 43.0811 55.8504 43.0811 53.6307C43.0811 53.5783 43.0831 53.5263 43.0851 53.4743C43.0857 53.4576 43.0856 53.4405 43.0864 53.4238C43.0884 53.3852 43.0921 53.3471 43.0952 53.3088C43.0975 53.2791 43.0989 53.2491 43.102 53.2196C43.1033 53.207 43.1054 53.1947 43.1067 53.1823C43.1203 53.06 43.1386 52.939 43.163 52.8203C43.1637 52.8168 43.1647 52.8134 43.1655 52.8099C43.5455 50.9826 45.1681 49.6053 47.1066 49.6053C47.6615 49.6053 48.1906 49.7181 48.672 49.9222C50.1163 50.5341 51.132 51.966 51.132 53.6308C51.132 55.8504 49.3263 57.6562 47.1066 57.6562ZM56.6836 52.4588L53.3678 52.4587C53.364 52.4379 53.3589 52.4175 53.3548 52.3968C53.3272 52.2591 53.2955 52.1222 53.2595 51.9864C53.2436 51.927 53.2267 51.8679 53.209 51.809C53.198 51.7724 53.1872 51.7358 53.1758 51.6994C53.1561 51.6382 53.1354 51.5772 53.1138 51.5166C53.1023 51.4842 53.0914 51.4513 53.0793 51.4191C53.0532 51.3492 53.0258 51.2799 52.997 51.211C52.988 51.1892 52.9798 51.1669 52.9706 51.1452C52.9319 51.0542 52.8911 50.9641 52.8482 50.875C52.8428 50.8639 52.837 50.8532 52.8316 50.8422C52.7942 50.7656 52.7553 50.6897 52.7149 50.6146C52.7 50.5871 52.6842 50.5602 52.6689 50.5329C52.6368 50.4749 52.6037 50.4175 52.5697 50.3606C52.5511 50.3297 52.5319 50.2995 52.5128 50.2689C52.4606 50.1846 52.4062 50.1016 52.3496 50.0201C52.294 49.9395 52.2365 49.8602 52.1773 49.7821C52.1404 49.7337 52.1027 49.6858 52.0644 49.6385C52.0415 49.6102 52.019 49.5819 51.9957 49.554C51.9539 49.5043 51.9115 49.4553 51.8683 49.4069C51.847 49.383 51.8262 49.3585 51.8045 49.3349C51.7508 49.2763 51.6959 49.2188 51.6399 49.1623C51.6278 49.1501 51.6163 49.1374 51.6042 49.1253C51.5351 49.0563 51.4644 48.989 51.3923 48.9233C51.3769 48.9092 51.3609 48.896 51.3453 48.882C51.2888 48.8315 51.2316 48.7815 51.1733 48.7329C51.1477 48.7116 51.1213 48.6912 51.0954 48.6704C51.046 48.6304 50.9961 48.5911 50.9456 48.5525C50.9158 48.53 50.8857 48.5081 50.8556 48.4861C50.7282 48.3927 50.5973 48.3043 50.4631 48.221C50.4303 48.2004 50.3974 48.1802 50.3641 48.1602C50.3122 48.1292 50.2597 48.0993 50.2068 48.0698C50.1744 48.0516 50.142 48.0331 50.1092 48.0155C50.0518 47.9847 49.9935 47.9553 49.9351 47.9262C49.906 47.9117 49.8773 47.8966 49.848 47.8826C49.7714 47.8461 49.6941 47.8111 49.6161 47.7776C49.6041 47.7725 49.5924 47.7667 49.5803 47.7616C49.4896 47.7233 49.398 47.6871 49.3056 47.6531C49.2793 47.6433 49.2524 47.6348 49.2258 47.6254C49.1595 47.602 49.0931 47.5789 49.0258 47.5575C48.9905 47.5464 48.9549 47.5363 48.9194 47.5258C48.8597 47.5081 48.8 47.4906 48.7396 47.4746C48.701 47.4643 48.662 47.4549 48.623 47.4453C48.5245 47.421 48.4255 47.3992 48.326 47.3798C48.267 47.3684 48.2078 47.3578 48.1485 47.348C48.1079 47.3413 48.0672 47.3345 48.0263 47.3287C47.9647 47.3199 47.9029 47.3121 47.841 47.3051C47.8018 47.3006 47.7626 47.2956 47.7231 47.2919C47.6546 47.2856 47.586 47.2803 47.5172 47.2762C47.4836 47.2741 47.4503 47.271 47.4166 47.2694C47.3133 47.2643 47.2099 47.2617 47.1065 47.2615C47.0026 47.2615 46.8992 47.2645 46.7964 47.2694C46.7627 47.271 46.7293 47.2741 46.6956 47.2762C46.6269 47.2806 46.5582 47.2853 46.49 47.2919C46.4504 47.2958 46.4112 47.3007 46.3719 47.3052C46.31 47.3124 46.2482 47.3199 46.1869 47.3288C46.1459 47.3348 46.105 47.3415 46.0642 47.3483C45.9641 47.3649 45.8644 47.3838 45.7652 47.4049C45.7068 47.4175 45.6487 47.431 45.5907 47.4453C45.5513 47.4549 45.512 47.4645 45.473 47.4748C45.4133 47.4906 45.3541 47.5079 45.295 47.5254C45.2589 47.5362 45.2226 47.5464 45.1867 47.5578C45.121 47.5788 45.0557 47.601 44.9907 47.6242C44.9628 47.6341 44.9345 47.6431 44.9068 47.6534C44.8147 47.6874 44.7235 47.7233 44.6335 47.7613C44.6186 47.7677 44.6041 47.7747 44.5892 47.7812C44.5141 47.8136 44.4395 47.847 44.366 47.8822C44.3349 47.897 44.3045 47.913 44.2737 47.9283C44.2172 47.9566 44.1608 47.9849 44.1052 48.0147C44.0709 48.0331 44.037 48.0524 44.003 48.0715C43.9519 48.1001 43.9011 48.1293 43.8507 48.1592C43.7322 48.2304 43.6159 48.3051 43.5019 48.3833C43.4546 48.416 43.4076 48.4494 43.3612 48.4835C43.3292 48.5068 43.2971 48.53 43.2656 48.5539C43.2174 48.5904 43.1702 48.6281 43.1231 48.6659C43.0947 48.6888 43.066 48.711 43.038 48.7343C42.9838 48.7795 42.9309 48.826 42.8783 48.8727C42.8587 48.8901 42.8386 48.9069 42.8193 48.9244C42.7482 48.9892 42.6786 49.0556 42.6105 49.1235C42.5933 49.1406 42.577 49.1587 42.5599 49.176C42.5094 49.2276 42.4592 49.2795 42.4103 49.3328C42.386 49.3595 42.3624 49.387 42.3385 49.414C42.2983 49.4594 42.2583 49.5049 42.2194 49.5514C42.1941 49.5817 42.1695 49.6126 42.1448 49.6434C42.1087 49.6881 42.0731 49.7331 42.0381 49.7788C41.9545 49.889 41.8742 50.0018 41.7976 50.1169C41.7656 50.165 41.7346 50.2137 41.704 50.2627C41.6831 50.2962 41.6619 50.3296 41.6416 50.3635C41.6099 50.4161 41.5797 50.4695 41.5497 50.5232C41.5321 50.5545 41.514 50.5854 41.4968 50.6172C41.4608 50.684 41.4264 50.752 41.3928 50.8202C41.3833 50.8394 41.3731 50.858 41.3638 50.8774C41.3217 50.965 41.2816 51.0536 41.2435 51.143C41.2319 51.1703 41.2215 51.1982 41.2102 51.2258C41.1843 51.2889 41.1588 51.3523 41.1349 51.4165C41.1215 51.4524 41.1094 51.4887 41.0967 51.5247C41.0765 51.5817 41.057 51.6389 41.0384 51.6964C41.0259 51.7355 41.0143 51.7751 41.0024 51.8146C40.9737 51.911 40.9472 52.008 40.9231 52.1056C40.9092 52.162 40.8961 52.2187 40.8837 52.2758C40.8747 52.3171 40.8658 52.3585 40.8576 52.4001C40.8537 52.4198 40.8489 52.4391 40.8453 52.4588L22.4241 52.4585C22.4202 52.4382 22.4154 52.4181 22.4115 52.3979C22.4036 52.3578 22.3949 52.3181 22.3864 52.2783C22.3524 52.1215 22.3123 51.9659 22.2663 51.8122C22.2549 51.774 22.2435 51.7358 22.2315 51.6978C22.2125 51.6389 22.1926 51.5804 22.1719 51.5221C22.1596 51.4872 22.1478 51.452 22.1349 51.4174C22.1105 51.3522 22.0849 51.2875 22.0581 51.2232C22.0474 51.1967 22.0373 51.1697 22.026 51.1435C21.9879 51.0538 21.9476 50.965 21.9053 50.8771C21.8968 50.8594 21.8874 50.8423 21.8787 50.8247C21.8445 50.7548 21.809 50.6855 21.7721 50.6169C21.7554 50.5859 21.7376 50.5556 21.7204 50.525C21.6899 50.4707 21.6593 50.4166 21.6274 50.3634C21.6072 50.3297 21.5862 50.2968 21.5655 50.2636C21.5348 50.2143 21.5034 50.1654 21.4714 50.1169C21.3947 50.0019 21.3145 49.8893 21.2309 49.7792C21.1961 49.7335 21.1605 49.6885 21.1244 49.6438C21.0995 49.613 21.0748 49.582 21.0495 49.5516C21.0106 49.5055 20.971 49.4598 20.9309 49.4147C20.9068 49.3876 20.8831 49.3599 20.8586 49.3331C20.8103 49.2803 20.7606 49.2289 20.7106 49.1778C20.693 49.1599 20.6763 49.1413 20.6585 49.1238C20.5905 49.0559 20.521 48.9897 20.45 48.925C20.4303 48.907 20.4097 48.89 20.3897 48.8722C20.3377 48.8255 20.2849 48.7798 20.2313 48.7349C20.2029 48.7114 20.1739 48.6888 20.1452 48.6657C20.0985 48.6282 20.0517 48.5908 20.0038 48.5546C19.9721 48.5304 19.9397 48.5071 19.9075 48.4836C19.8613 48.4497 19.8146 48.4165 19.7675 48.3838C19.6868 48.3285 19.605 48.2749 19.522 48.2232C19.4875 48.2016 19.4529 48.1803 19.418 48.1594C19.368 48.1296 19.3175 48.1006 19.2666 48.0722C19.2324 48.053 19.1983 48.0336 19.1636 48.0151C19.1083 47.9856 19.0525 47.957 18.9964 47.9293C18.9652 47.9137 18.9344 47.8975 18.9029 47.8824C18.8301 47.8478 18.7567 47.8146 18.6828 47.7827C18.667 47.7758 18.6515 47.7683 18.6356 47.7615C18.5454 47.7234 18.4544 47.6875 18.3626 47.6536C18.3344 47.6432 18.3057 47.6341 18.2772 47.624C18.2127 47.601 18.1479 47.579 18.0827 47.558C18.0466 47.5465 18.0099 47.5362 17.9734 47.5254C17.9147 47.5078 17.8556 47.491 17.7964 47.4751C17.7571 47.4646 17.7176 47.455 17.6781 47.4454C17.5218 47.4067 17.3639 47.3743 17.2049 47.3484C17.1642 47.3417 17.1234 47.3349 17.0822 47.3289C17.0207 47.3202 16.959 47.3123 16.8972 47.3054C16.8579 47.3008 16.8188 47.2959 16.7793 47.292C16.7108 47.2857 16.6421 47.2805 16.5734 47.2763C16.5398 47.2742 16.5065 47.2711 16.4727 47.2695C16.3695 47.2644 16.2661 47.2618 16.1627 47.2617C16.0587 47.2617 15.9555 47.2646 15.8526 47.2695C15.8188 47.2711 15.7854 47.2742 15.7518 47.2763C15.683 47.2808 15.6143 47.2854 15.5461 47.292C15.5065 47.2959 15.4673 47.3008 15.4279 47.3054C15.3662 47.3123 15.3047 47.3202 15.2432 47.3289C15.202 47.3349 15.1611 47.3417 15.1202 47.3484C15.0201 47.3648 14.9204 47.3837 14.8212 47.405C14.7631 47.4175 14.7053 47.431 14.6477 47.4452C14.6079 47.4549 14.5681 47.4646 14.5287 47.4751C14.4699 47.4909 14.4113 47.5076 14.3529 47.5251C14.3161 47.536 14.2791 47.5465 14.2426 47.558C14.1781 47.5784 14.1143 47.6007 14.0507 47.6231C14.0213 47.6334 13.9917 47.6429 13.9625 47.6536C13.8708 47.6875 13.7801 47.7231 13.6906 47.761C13.6724 47.7687 13.6547 47.7773 13.6367 47.7851C13.5651 47.8162 13.4938 47.8481 13.4235 47.8817C13.3907 47.8974 13.3586 47.9143 13.326 47.9306C13.2712 47.9577 13.2169 47.9855 13.1629 48.0142C13.1273 48.0333 13.0922 48.0534 13.057 48.0732C13.0073 48.1011 12.9577 48.1292 12.9088 48.1585C12.8253 48.2086 12.7428 48.2604 12.6615 48.3141C12.6263 48.3373 12.5914 48.3608 12.5567 48.3847C12.5108 48.4163 12.4655 48.4488 12.4204 48.4816C12.387 48.506 12.3534 48.5302 12.3204 48.5553C12.2744 48.5903 12.2292 48.6263 12.184 48.6625C12.1537 48.6869 12.123 48.7107 12.0932 48.7356C12.0425 48.7778 11.993 48.8214 11.9437 48.8651C11.9207 48.8854 11.8973 48.9051 11.8745 48.9257C11.8043 48.9898 11.7355 49.0554 11.6682 49.1225C11.6473 49.1433 11.6274 49.1651 11.6068 49.1862C11.56 49.2342 11.5135 49.2822 11.4683 49.3315C11.4419 49.3602 11.4166 49.3899 11.3908 49.4191C11.3526 49.4623 11.3145 49.5056 11.2776 49.5499C11.2509 49.5817 11.2249 49.6143 11.1988 49.6468C11.1642 49.6897 11.1301 49.7331 11.0965 49.777C11.0376 49.8544 10.9805 49.9332 10.9251 50.0132C10.9008 50.0482 10.8768 50.0835 10.8531 50.1189C10.8223 50.1653 10.7926 50.2123 10.7629 50.2594C10.7409 50.2946 10.7187 50.3295 10.6974 50.3651C10.667 50.4156 10.6381 50.467 10.6092 50.5183C10.5904 50.5517 10.5711 50.5847 10.5528 50.6185C10.519 50.6817 10.4863 50.7454 10.4547 50.8097C10.4432 50.8327 10.431 50.8552 10.4199 50.8784C10.3782 50.9651 10.3384 51.0529 10.3006 51.1417C10.2877 51.172 10.2762 51.2028 10.2638 51.2333C10.2392 51.2936 10.2147 51.354 10.192 51.4151C10.178 51.4525 10.1654 51.4904 10.1521 51.5281C10.1327 51.5835 10.1134 51.639 10.0955 51.695C10.0826 51.7352 10.0707 51.7757 10.0586 51.8163C10.0423 51.871 10.0265 51.9258 10.0116 51.9811C9.98553 52.0781 9.96189 52.1757 9.94071 52.2739C9.93157 52.3161 9.92243 52.3581 9.91411 52.4007C9.91036 52.4199 9.90568 52.4389 9.90204 52.4581H4.67958C3.93005 52.4581 3.32032 51.8484 3.32032 51.0987V45.0004C3.31875 44.2451 3.57152 43.5113 4.0379 42.9171C4.50428 42.323 5.15711 41.9032 5.89118 41.7254C6.55903 41.5621 7.13267 41.376 7.60107 41.1705H50.1626C50.8097 41.1705 51.3345 40.6458 51.3345 39.9986C51.3345 39.3515 50.8097 38.8267 50.1626 38.8267H24.9759V17.6365C24.9759 16.2133 26.1339 15.0552 27.5572 15.0552H56.0043C58.2503 15.0552 58.5856 18.2034 58.5856 20.08V50.5567C58.5856 52.2118 57.3939 52.4588 56.6836 52.4588Z" fill="#F1CDB3"/>
  <path d="M51.4372 24.8147C51.4373 23.2763 50.3567 21.9863 48.915 21.6615C48.9227 21.5806 48.9288 21.4992 48.9311 21.4169C48.958 20.4633 48.6017 19.5567 47.9282 18.864C47.2433 18.1596 46.2867 17.7557 45.3035 17.7557C44.1154 17.7557 43.0573 18.3338 42.3949 19.2239C41.7329 18.3338 40.6739 17.7557 39.4831 17.7557C38.5087 17.7557 37.5587 18.1544 36.8768 18.8498C36.1995 19.5402 35.8367 20.4483 35.8552 21.4064C35.8569 21.4923 35.8627 21.5773 35.8703 21.6618C34.4292 21.987 33.3493 23.2766 33.3493 24.8147C33.3493 26.1163 34.123 27.2399 35.2341 27.7519C34.4513 28.7206 33.9945 29.9464 33.9945 31.2423C33.9945 34.3028 36.4844 36.7927 39.5449 36.7927C40.5529 36.7927 41.5371 36.5172 42.3932 36.0051C43.2541 36.5202 44.2384 36.7924 45.2416 36.7927C48.3021 36.7927 50.7919 34.3028 50.7919 31.2423C50.7919 29.9462 50.3352 28.7206 49.5523 27.7519C50.6636 27.2399 51.4372 26.1163 51.4372 24.8147ZM45.3035 20.0996C45.6575 20.0996 46.0017 20.2448 46.2479 20.4979C46.4763 20.7328 46.5971 21.0357 46.5883 21.3508C46.568 22.0692 45.9856 22.6602 45.2899 22.6682C45.1034 22.668 44.9192 22.6279 44.7495 22.5505C44.7285 22.5408 44.7079 22.5304 44.6868 22.5209C44.5801 22.4646 44.4823 22.3927 44.3967 22.3077C44.1519 22.0648 44.0178 21.7384 44.0192 21.3885C44.022 20.6778 44.5982 20.0996 45.3035 20.0996ZM38.5498 20.491C38.6712 20.3665 38.8164 20.2677 38.9767 20.2005C39.137 20.1332 39.3092 20.0988 39.483 20.0994C40.1903 20.0994 40.7664 20.6762 40.7673 21.3851C40.7681 21.5579 40.7343 21.7291 40.6678 21.8885C40.6014 22.048 40.5035 22.1925 40.3802 22.3135C40.2964 22.3959 40.2014 22.466 40.0979 22.5217C40.0596 22.5391 40.0222 22.5577 39.9843 22.5758C39.8316 22.6389 39.6676 22.6704 39.5023 22.6683C38.797 22.6567 38.2121 22.0704 38.1984 21.3613C38.1921 21.0374 38.317 20.7285 38.5498 20.491ZM35.693 24.8148C35.6929 24.3245 36.0918 23.9257 36.5819 23.9257C37.0722 23.9257 37.471 24.3245 37.471 24.8148C37.471 24.9155 37.4534 25.0118 37.4225 25.1022C37.3932 25.1611 37.365 25.2207 37.3378 25.2808C37.181 25.5341 36.9012 25.7038 36.582 25.7038C36.0918 25.7038 35.693 25.305 35.693 24.8148ZM45.2416 34.4492C44.4766 34.4489 43.7368 34.175 43.1561 33.6769C42.9438 33.4945 42.6731 33.3943 42.3932 33.3946C42.1133 33.3944 41.8427 33.4946 41.6303 33.6769C41.0496 34.175 40.3099 34.4489 39.5449 34.4492C37.7767 34.4492 36.3383 33.0107 36.3383 31.2426C36.3383 29.9023 37.1833 28.6919 38.441 28.2307C38.6473 28.1551 38.8281 28.023 38.963 27.8495C39.0978 27.676 39.1811 27.4681 39.2034 27.2495C39.2362 26.9273 39.3176 26.6118 39.4448 26.3139C39.4865 26.2346 39.5257 26.1537 39.5608 26.0707C39.8717 25.4851 40.3572 25.0108 40.9498 24.7136C41.0008 24.6912 41.0512 24.6676 41.1011 24.6428C41.5086 24.4648 41.9486 24.3731 42.3932 24.3737C42.8513 24.3737 43.2876 24.4692 43.6829 24.6417C43.7328 24.6665 43.7832 24.6899 43.8342 24.7123C44.428 25.0094 44.9143 25.4843 45.2257 26.0707C45.2608 26.1537 45.3 26.2346 45.3417 26.3139C45.4688 26.6118 45.5502 26.9273 45.5831 27.2495C45.6054 27.4681 45.6887 27.676 45.8235 27.8495C45.9583 28.023 46.1392 28.1551 46.3455 28.2307C47.6032 28.692 48.4482 29.9023 48.4482 31.2426C48.4482 33.0106 47.0097 34.4492 45.2416 34.4492ZM48.2046 25.7038C47.8853 25.7038 47.6056 25.5341 47.4488 25.2808C47.4216 25.2208 47.3934 25.1612 47.3641 25.1022C47.3321 25.0097 47.3157 24.9126 47.3156 24.8148C47.3156 24.3245 47.7144 23.9257 48.2047 23.9257C48.6949 23.9257 49.0937 24.3245 49.0937 24.8148C49.0935 25.3049 48.6948 25.7038 48.2046 25.7038Z" fill="#F1CDB3"/>
  <path d="M56.0194 39.7758C56.0043 39.7007 55.982 39.6273 55.9527 39.5566C55.9235 39.4857 55.8874 39.4178 55.8449 39.3539C55.8027 39.2897 55.754 39.23 55.6996 39.1758C55.6453 39.1214 55.5856 39.0727 55.5214 39.0305C55.3933 38.9457 55.2501 38.8864 55.0995 38.8559C54.9487 38.8254 54.7933 38.8254 54.6425 38.8559C54.5675 38.8712 54.4937 38.8934 54.4222 38.9227C54.3519 38.952 54.2839 38.9884 54.2206 39.0305C54.1562 39.0727 54.0964 39.1219 54.0425 39.1758C53.9885 39.2297 53.9393 39.2895 53.896 39.3539C53.8538 39.4172 53.8174 39.4852 53.7894 39.5566C53.7601 39.627 53.7367 39.7008 53.7226 39.7758C53.7074 39.8508 53.6992 39.9281 53.6992 40.0043C53.6992 40.0803 53.7074 40.1578 53.7226 40.234C53.7367 40.3078 53.7601 40.3816 53.7894 40.4531C53.8187 40.5234 53.855 40.5914 53.8972 40.6547C53.9393 40.7191 53.9885 40.7789 54.0425 40.8328C54.0964 40.8867 54.1562 40.9359 54.2206 40.9793C54.2839 41.0215 54.3519 41.0566 54.4222 41.0859C54.4937 41.1152 54.5675 41.1387 54.6425 41.1527C54.7176 41.168 54.795 41.1762 54.871 41.1762C54.9472 41.1762 55.0247 41.168 55.0995 41.1527C55.1745 41.1387 55.2484 41.1152 55.3187 41.0859C55.3902 41.0566 55.4581 41.0215 55.5214 40.9793C55.586 40.9359 55.6458 40.8867 55.6996 40.8328C55.7535 40.7789 55.8027 40.7191 55.8449 40.6547C55.8869 40.5914 55.9234 40.5234 55.9527 40.4531C55.982 40.3816 56.0041 40.3078 56.0194 40.234C56.0347 40.1578 56.0428 40.0803 56.0428 40.0043C56.0428 39.9281 56.0347 39.8508 56.0194 39.7758Z" fill="#F1CDB3"/>
  <path d="M42.3932 0C41.7461 0 41.2214 0.524648 41.2214 1.17188V3.13359C41.2214 3.78082 41.7461 4.30547 42.3932 4.30547C43.0405 4.30547 43.5651 3.7807 43.5651 3.13359V1.17188C43.5651 0.524648 43.0405 0 42.3932 0Z" fill="#F1CDB3"/>
  <path d="M37.4563 4.55659L35.8206 3.27234C35.6995 3.1773 35.561 3.10703 35.4128 3.06555C35.2646 3.02407 35.1096 3.01218 34.9568 3.03057C34.804 3.04896 34.6564 3.09727 34.5222 3.17273C34.3881 3.24819 34.2702 3.34934 34.1751 3.47038C33.7755 3.97944 33.8642 4.71608 34.3732 5.11569L36.0089 6.39995C36.2149 6.56221 36.4696 6.65035 36.7318 6.65015C36.9095 6.65039 37.0849 6.61017 37.2448 6.53253C37.4046 6.45488 37.5447 6.34186 37.6543 6.20202C38.0541 5.69284 37.9653 4.9562 37.4563 4.55659Z" fill="#F1CDB3"/>
  <path d="M50.6114 3.47021C50.2118 2.96115 49.4753 2.87244 48.966 3.27216L47.3303 4.55642C46.8212 4.95603 46.7325 5.69267 47.1322 6.20185C47.2418 6.34177 47.3818 6.45487 47.5417 6.53254C47.7015 6.61021 47.877 6.65042 48.0547 6.6501C48.317 6.65028 48.5716 6.56214 48.7776 6.3999L50.4133 5.11564C50.9224 4.71603 51.0111 3.97939 50.6114 3.47021Z" fill="#F1CDB3"/>
</svg>